<svg xmlns="http://www.w3.org/2000/svg" viewBox="0 0 25832.37 7772.22" role="img" aria-label="TRÉBOLES"><title>TRÉBOLES — simbolo + wordmark, horizontal</title><g fill="#005236" fill-rule="nonzero"><path data-pieza="wordmark" d="M9733.766434573767 4654.110000000001V3278.1100000000006H8965.766434573767V3118.1100000000006H10693.766434573767V3278.1100000000006H9925.766434573767V4654.110000000001Z M11188.566434573768 3118.1100000000006H12216.566434573768Q12441.566434573768 3118.1100000000006 12579.066434573768 3138.1100000000006Q12716.566434573768 3158.1100000000006 12787.566434573768 3207.1100000000006Q12858.566434573768 3256.1100000000006 12883.566434573768 3341.1100000000006Q12908.566434573768 3426.1100000000006 12908.566434573768 3556.1100000000006V3596.1100000000006Q12908.566434573768 3716.1100000000006 12880.066434573768 3802.6100000000006Q12851.566434573768 3889.1100000000006 12770.566434573768 3942.6100000000006Q12689.566434573768 3996.1100000000006 12530.566434573768 4018.1100000000006L12864.566434573768 4654.110000000001H12672.566434573768L12345.566434573768 4032.1100000000006Q12325.566434573768 4033.1100000000006 12304.066434573768 4033.1100000000006Q12282.566434573768 4033.1100000000006 12259.566434573768 4033.1100000000006H11380.566434573768V4654.110000000001H11188.566434573768ZM11380.566434573768 3867.1100000000006H12229.566434573768Q12400.566434573768 3867.1100000000006 12499.066434573768 3855.6100000000006Q12597.566434573768 3844.1100000000006 12644.066434573768 3815.1100000000006Q12690.566434573768 3786.1100000000006 12703.566434573768 3733.1100000000006Q12716.566434573768 3680.1100000000006 12716.566434573768 3596.1100000000006V3556.1100000000006Q12716.566434573768 3461.1100000000006 12698.566434573768 3406.1100000000006Q12680.566434573768 3351.1100000000006 12626.566434573768 3325.1100000000006Q12572.566434573768 3299.1100000000006 12465.566434573768 3291.6100000000006Q12358.566434573768 3284.1100000000006 12179.566434573768 3284.1100000000006H11380.566434573768Z M13476.366434573767 4654.110000000001V3118.1100000000006H14984.366434573767V3278.1100000000006H13668.366434573767V3790.1100000000006H14929.366434573767V3950.1100000000006H13668.366434573767V4494.110000000001H15012.366434573767V4654.110000000001ZM14016.366434573767 2928.1100000000006 13952.366434573767 2832.1100000000006 14528.366434573767 2352.1100000000006 14646.366434573767 2524.1100000000006Z M15473.166434573766 4654.110000000001V3118.1100000000006H16697.166434573766Q16871.166434573766 3118.1100000000006 16982.666434573766 3150.6100000000006Q17094.166434573766 3183.1100000000006 17147.666434573766 3265.6100000000006Q17201.166434573766 3348.1100000000006 17201.166434573766 3499.1100000000006Q17201.166434573766 3635.1100000000006 17138.166434573766 3724.1100000000006Q17075.166434573766 3813.1100000000006 16945.166434573766 3822.1100000000006Q17115.166434573766 3839.1100000000006 17190.166434573766 3943.6100000000006Q17265.166434573766 4048.1100000000006 17265.166434573766 4206.110000000001Q17265.166434573766 4343.110000000001 17233.666434573766 4431.110000000001Q17202.166434573766 4519.110000000001 17128.166434573766 4567.610000000001Q17054.166434573766 4616.110000000001 16927.666434573766 4635.110000000001Q16801.166434573766 4654.110000000001 16612.166434573766 4654.110000000001ZM15665.166434573766 3758.1100000000006H16560.166434573766Q16715.166434573766 3758.1100000000006 16814.166434573766 3747.1100000000006Q16913.166434573766 3736.1100000000006 16961.166434573766 3682.1100000000006Q17009.166434573766 3628.1100000000006 17009.166434573766 3499.1100000000006Q17009.166434573766 3398.1100000000006 16980.666434573766 3351.1100000000006Q16952.166434573766 3304.1100000000006 16884.166434573766 3291.1100000000006Q16816.166434573766 3278.1100000000006 16697.166434573766 3278.1100000000006H15665.166434573766ZM15665.166434573766 4494.110000000001H16612.166434573766Q16749.166434573766 4494.110000000001 16838.666434573766 4487.110000000001Q16928.166434573766 4480.110000000001 16979.666434573766 4453.110000000001Q17031.166434573766 4426.110000000001 17052.166434573766 4367.610000000001Q17073.166434573766 4309.110000000001 17073.166434573766 4206.110000000001Q17073.166434573766 4100.110000000001 17033.666434573766 4041.1100000000006Q16994.166434573766 3982.1100000000006 16923.666434573766 3956.1100000000006Q16853.166434573766 3930.1100000000006 16760.166434573766 3924.1100000000006Q16667.166434573766 3918.1100000000006 16560.166434573766 3918.1100000000006H15665.166434573766Z M18468.96643457377 4686.110000000001Q18243.96643457377 4686.110000000001 18098.96643457377 4655.610000000001Q17953.96643457377 4625.110000000001 17872.46643457377 4543.110000000001Q17790.96643457377 4461.110000000001 17758.46643457377 4307.110000000001Q17725.96643457377 4153.110000000001 17725.96643457377 3906.1100000000006V3866.1100000000006Q17725.96643457377 3662.1100000000006 17745.96643457377 3523.6100000000006Q17765.96643457377 3385.1100000000006 17814.96643457377 3298.1100000000006Q17863.96643457377 3211.1100000000006 17948.46643457377 3165.1100000000006Q18032.96643457377 3119.1100000000006 18160.96643457377 3102.6100000000006Q18288.96643457377 3086.1100000000006 18468.96643457377 3086.1100000000006H18871.96643457377Q19051.96643457377 3086.1100000000006 19179.96643457377 3102.6100000000006Q19307.96643457377 3119.1100000000006 19392.46643457377 3165.1100000000006Q19476.96643457377 3211.1100000000006 19525.96643457377 3298.1100000000006Q19574.96643457377 3385.1100000000006 19594.96643457377 3523.6100000000006Q19614.96643457377 3662.1100000000006 19614.96643457377 3866.1100000000006V3906.1100000000006Q19614.96643457377 4153.110000000001 19582.46643457377 4307.110000000001Q19549.96643457377 4461.110000000001 19468.46643457377 4543.110000000001Q19386.96643457377 4625.110000000001 19241.96643457377 4655.610000000001Q19096.96643457377 4686.110000000001 18871.96643457377 4686.110000000001ZM18468.96643457377 4520.110000000001H18871.96643457377Q19014.96643457377 4520.110000000001 19112.96643457377 4510.110000000001Q19210.96643457377 4500.110000000001 19272.46643457377 4467.110000000001Q19333.96643457377 4434.110000000001 19366.46643457377 4367.110000000001Q19398.96643457377 4300.110000000001 19410.96643457377 4188.110000000001Q19422.96643457377 4076.1100000000006 19422.96643457377 3906.1100000000006V3866.1100000000006Q19422.96643457377 3690.1100000000006 19410.96643457377 3576.1100000000006Q19398.96643457377 3462.1100000000006 19366.46643457377 3396.1100000000006Q19333.96643457377 3330.1100000000006 19272.46643457377 3299.6100000000006Q19210.96643457377 3269.1100000000006 19112.96643457377 3260.6100000000006Q19014.96643457377 3252.1100000000006 18871.96643457377 3252.1100000000006H18468.96643457377Q18325.96643457377 3252.1100000000006 18227.96643457377 3260.6100000000006Q18129.96643457377 3269.1100000000006 18068.46643457377 3299.6100000000006Q18006.96643457377 3330.1100000000006 17974.46643457377 3396.1100000000006Q17941.96643457377 3462.1100000000006 17929.96643457377 3576.1100000000006Q17917.96643457377 3690.1100000000006 17917.96643457377 3866.1100000000006V3906.1100000000006Q17917.96643457377 4076.1100000000006 17929.96643457377 4188.110000000001Q17941.96643457377 4300.110000000001 17974.46643457377 4367.110000000001Q18006.96643457377 4434.110000000001 18068.46643457377 4467.110000000001Q18129.96643457377 4500.110000000001 18227.96643457377 4510.110000000001Q18325.96643457377 4520.110000000001 18468.96643457377 4520.110000000001Z M20139.766434573765 4654.110000000001V3118.1100000000006H20331.766434573765V4494.110000000001H21547.766434573765V4654.110000000001Z M22008.566434573768 4654.110000000001V3118.1100000000006H23516.566434573768V3278.1100000000006H22200.566434573768V3790.1100000000006H23461.566434573768V3950.1100000000006H22200.566434573768V4494.110000000001H23544.566434573768V4654.110000000001Z M25640.366434573763 4210.110000000001Q25640.366434573763 4121.110000000001 25626.366434573763 4070.1100000000006Q25612.366434573763 4019.1100000000006 25563.366434573763 3994.6100000000006Q25514.366434573763 3970.1100000000006 25411.366434573763 3962.6100000000006Q25308.366434573763 3955.1100000000006 25129.366434573763 3952.1100000000006L24573.366434573763 3944.1100000000006Q24367.366434573763 3941.1100000000006 24242.366434573763 3919.1100000000006Q24117.366434573763 3897.1100000000006 24053.366434573763 3849.6100000000006Q23989.366434573763 3802.1100000000006 23967.866434573763 3722.1100000000006Q23946.366434573763 3642.1100000000006 23946.366434573763 3522.1100000000006Q23946.366434573763 3391.1100000000006 23975.866434573763 3306.1100000000006Q24005.366434573763 3221.1100000000006 24082.866434573763 3173.1100000000006Q24160.366434573763 3125.1100000000006 24302.366434573763 3105.6100000000006Q24444.366434573763 3086.1100000000006 24669.366434573763 3086.1100000000006H25097.366434573763Q25301.366434573763 3086.1100000000006 25437.366434573763 3099.1100000000006Q25573.366434573763 3112.1100000000006 25653.366434573763 3159.1100000000006Q25733.366434573763 3206.1100000000006 25767.866434573763 3305.1100000000006Q25802.366434573763 3404.1100000000006 25802.366434573763 3577.1100000000006H25610.366434573763Q25610.366434573763 3443.1100000000006 25584.866434573763 3374.6100000000006Q25559.366434573763 3306.1100000000006 25500.866434573763 3281.1100000000006Q25442.366434573763 3256.1100000000006 25343.366434573763 3254.1100000000006Q25244.366434573763 3252.1100000000006 25097.366434573763 3252.1100000000006H24679.366434573763Q24500.366434573763 3252.1100000000006 24392.866434573763 3259.1100000000006Q24285.366434573763 3266.1100000000006 24230.366434573763 3291.1100000000006Q24175.366434573763 3316.1100000000006 24156.866434573763 3371.1100000000006Q24138.366434573763 3426.1100000000006 24138.366434573763 3522.1100000000006Q24138.366434573763 3603.1100000000006 24151.366434573763 3652.1100000000006Q24164.366434573763 3701.1100000000006 24209.866434573763 3726.6100000000006Q24255.366434573763 3752.1100000000006 24350.366434573763 3761.6100000000006Q24445.366434573763 3771.1100000000006 24609.366434573763 3773.1100000000006L25205.366434573763 3781.1100000000006Q25415.366434573763 3784.1100000000006 25540.866434573763 3805.6100000000006Q25666.366434573763 3827.1100000000006 25728.866434573763 3875.1100000000006Q25791.366434573763 3923.1100000000006 25811.866434573763 4004.6100000000006Q25832.366434573763 4086.1100000000006 25832.366434573763 4210.110000000001Q25832.366434573763 4345.110000000001 25806.866434573763 4436.610000000001Q25781.366434573763 4528.110000000001 25708.366434573763 4583.110000000001Q25635.366434573763 4638.110000000001 25497.366434573763 4662.110000000001Q25359.366434573763 4686.110000000001 25134.366434573763 4686.110000000001H24666.366434573763Q24461.366434573763 4686.110000000001 24322.366434573763 4668.110000000001Q24183.366434573763 4650.110000000001 24100.866434573763 4595.610000000001Q24018.366434573763 4541.110000000001 23982.366434573763 4433.110000000001Q23946.366434573763 4325.110000000001 23946.366434573763 4145.110000000001H24138.366434573763Q24138.366434573763 4286.110000000001 24161.366434573763 4363.110000000001Q24184.366434573763 4440.110000000001 24241.866434573763 4473.610000000001Q24299.366434573763 4507.110000000001 24402.866434573763 4513.610000000001Q24506.366434573763 4520.110000000001 24666.366434573763 4520.110000000001H25124.366434573763Q25303.366434573763 4520.110000000001 25407.366434573763 4508.610000000001Q25511.366434573763 4497.110000000001 25561.366434573763 4464.610000000001Q25611.366434573763 4432.110000000001 25625.866434573763 4371.110000000001Q25640.366434573763 4310.110000000001 25640.366434573763 4210.110000000001Z"/><g transform="translate(-1076.6162 -703.8790) scale(9.210187)"><path d="M607.76 77.2669C602.234 76.7035 592.061 76.0322 586.484 76.7073C524.215 81.1655 475.787 116.971 455.099 176.095C433.396 152.172 413.335 137.801 379.587 136.237C350.346 134.642 321.677 144.786 299.945 164.415C280.784 181.914 267.352 208.189 266.54 234.257C265.024 282.94 300.12 318.641 332.355 349.717C321.176 345.455 311.774 341.748 300.012 339.03C265.563 331.258 229.532 334.695 197.174 348.838C102.054 391.344 87.0073 509.639 176.088 568.126C158.371 586.711 148.401 606.718 149.044 632.995C149.542 657.968 160.098 681.683 178.319 698.767C200.652 719.901 229.185 728.189 259.468 727.253C291.997 726.248 314.75 715.566 342.758 701.153C338.012 708.598 333.135 715.905 326.369 721.711C302.566 742.137 270.223 757.172 242.029 770.619L194.96 793.158C180.238 800.14 163.717 806.362 151.252 817.071C141.752 825.232 134.354 837.729 136.978 850.679C138.766 859.504 145.062 867.542 152.542 872.346C165.359 880.576 181.793 880.783 196.232 877.561C211.966 874.051 226.985 866.593 240.925 858.667C301.333 824.322 347.846 769.344 384.424 711.118C433.574 632.878 461.302 572.198 461.53 477.753C461.595 451.039 459.749 423.849 453.786 397.743C452.238 390.964 450.519 384.219 449.064 377.42C447.45 369.879 446.817 361.85 443.482 354.806C442.575 352.89 441.246 351.46 439.439 350.351C434.375 347.242 425.609 347.636 417.769 347.989C409.608 348.356 402.451 348.678 401.516 344.956C400.713 341.757 403.152 337.89 404.956 335.426C412.184 325.555 433.327 312.051 443.984 304.423C452.203 298.563 460.288 292.517 468.233 286.291C481.411 275.935 493.886 264.87 506.987 254.386C510.843 251.3 520.633 247.019 520.703 255.853C520.725 258.582 518.805 262.622 516.979 266.465C515.878 268.784 514.81 271.03 514.224 272.874C502.339 310.244 506.936 349.172 511.463 387.5C512.422 395.619 513.378 403.711 514.173 411.755C518.607 455.759 516.696 500.173 508.498 543.634C501.912 579.639 489.044 620.497 471.796 653.016C444.533 704.42 405.874 745 401.095 805.75C394.591 888.43 488.559 958.034 558.275 897.273C568.88 888.016 577.746 876.938 584.455 864.562C585.69 862.075 587.05 859.444 588.201 856.937C605.459 876.248 622.234 887.823 649.171 889.46C671.206 890.987 692.914 883.479 709.298 868.665C726.589 853.243 737.07 831.602 738.449 808.474C740.068 776.435 726.606 743.233 706.419 718.746C733.216 730.215 760.26 738.792 789.761 738.5C840.351 738 892.137 712.134 912.628 663.898C924.423 636.273 924.57 605.057 913.036 577.322C901.594 549.212 884.015 532.444 859.185 516.441C910.686 472.416 909.175 402.21 866.597 352.641C842.703 324.517 808.418 307.296 771.591 304.92C730.056 301.889 687.245 316.672 655.613 343.717C636.601 359.972 620.415 382.662 618.676 408.347C616.833 435.564 633.826 472.523 651.609 492.714C652.193 493.377 652.788 494.031 653.394 494.674C625.486 515.651 604.521 540.265 599.4 576.13C595.964 600.147 602.215 624.546 616.777 643.952C625.281 655.197 638.268 665.781 652.654 667.673C664.271 669.286 676.042 666.086 685.244 658.813C702.314 645.474 713.406 623.831 715.831 602.372C719.31 571.574 704.92 542.559 686.261 519.017C680.266 511.452 671.295 502.403 664.591 495.37C677.849 482.656 700.61 454.635 707.69 438.15C710.273 432.26 711.706 425.93 711.912 419.501C712.155 407.043 707.625 394.964 699.251 385.738C695.705 381.803 691.718 378.238 688.891 373.793C710.246 359.859 755.781 376.721 768.321 397.517C773.68 406.405 775.801 415.93 773.297 426.362C766.917 450.994 742.162 467.079 722.154 480.381C721.489 480.823 720.313 481.5 718.852 482.342C712.019 486.276 698.936 493.81 702.486 497.807C707.835 503.222 715.653 508.88 721.855 513.337C749.946 533.527 775.533 569.114 768.833 605.596C756.682 671.76 686.982 695.345 627.196 685.284C573.428 676.236 537.08 647.313 544.877 588.901C550.498 551.358 577.645 528.802 605.432 506.445C605.654 506.269 605.916 506.066 606.21 505.838C609.757 503.088 617.842 496.821 613.942 492.926C608.869 487.86 601.577 484.465 596.125 479.698C574.741 462.294 559.557 436.644 562.451 408.347C564.619 389.007 576.701 368.921 589.192 354.383C597.08 345.202 608.066 336.463 617.302 328.791C638.796 310.938 664.83 298.952 687.172 282.586C707.024 268.044 718.253 243.71 720.929 219.421C724.634 184.31 714.241 149.166 692.036 121.718C671.017 95.6191 640.861 80.6416 607.76 77.2669Z"/></g></g></svg>
